<svg width="818" height="635" viewBox="0 0 818 635" fill="none" xmlns="http://www.w3.org/2000/svg">
<rect width="818" height="635" fill="#F5F5F5"/>
<g id="undraw_ride_a_bicycle_re_6tjy 1" clip-path="url(#clip0_0_1)">
<path id="Vector 1" d="M217.242 94.7915C180.72 155.56 111.249 112.665 70.3609 174.228C10.8146 230.231 70.3609 262.8 70.3609 352.165C70.3609 441.531 -49.1285 515.804 48.1303 601.993C145.389 688.181 240.266 563.069 330.776 545.593C421.287 528.117 590.001 664.748 626.523 581.737C663.044 498.726 781.343 495.945 658.678 352.165C536.012 208.386 677.335 130.141 557.052 35.2143C436.769 -59.7122 281.858 -12.7252 217.242 94.7915Z" fill="url(#paint0_linear_0_1)"/>
<g id="onthebike">
<path id="Vector" d="M318.321 477.091L329.38 486.346L371.135 447.142L354.812 433.483L318.321 477.091Z" fill="#FFB6B6"/>
<path id="Vector_2" d="M351.04 473.961L327.619 457.795L389.286 360.025C344.591 334.046 313.854 302.355 288.774 267.544C280.251 255.796 275.055 242.124 286.946 233.311C287.501 232.899 288.072 232.508 288.657 232.14C302.216 223.691 297.815 236.353 316.4 230.134L333.193 248.048L369.475 283.351L431.361 322.856C443.807 330.801 447.26 347.512 439.074 360.181C438.642 360.85 438.182 361.499 437.693 362.13L351.04 473.961Z" fill="#2F2E41"/>
<path id="Vector_3" d="M319.722 469.553L339.113 483.906L332.491 491.819L339.901 518.64C340.267 519.965 340.2 521.372 339.71 522.656C339.22 523.94 338.332 525.034 337.177 525.777C336.021 526.521 334.658 526.876 333.286 526.79C331.914 526.704 330.606 526.182 329.552 525.3L307.564 506.899L310.325 495.9L302.295 502.489L294.004 495.551L319.722 469.553Z" fill="#2F2E41"/>
<path id="Vector_4" d="M292.657 371.863L173.051 414.634L176.517 424.327L296.123 381.555L292.657 371.863Z" fill="#3F3D56"/>
<path id="Vector_5" d="M320.629 537.318L289.465 510.41C287.296 508.536 285.961 505.878 285.752 503.019C285.543 500.161 286.478 497.337 288.351 495.168C290.224 492.999 292.881 491.662 295.74 491.452C298.598 491.242 301.422 492.176 303.592 494.048L334.757 520.957C335.832 521.884 336.713 523.015 337.351 524.283C337.989 525.551 338.371 526.933 338.475 528.348C338.579 529.764 338.403 531.187 337.958 532.535C337.512 533.883 336.805 535.129 335.877 536.204C334.949 537.279 333.819 538.16 332.55 538.797C331.282 539.435 329.9 539.816 328.484 539.92C327.068 540.023 325.646 539.847 324.298 539.401C322.95 538.954 321.704 538.247 320.629 537.318V537.318Z" fill="#3F3D56"/>
<path id="Vector_6" d="M497.663 226.434C495.694 227.113 493.599 227.353 491.527 227.135C489.455 226.917 487.456 226.248 485.671 225.174C483.886 224.1 482.358 222.648 481.194 220.92C480.031 219.191 479.261 217.229 478.938 215.171L367.608 186.503L385.765 167.453L491.799 198.588C495.293 198.275 498.78 199.254 501.6 201.34C504.42 203.426 506.377 206.474 507.1 209.907C507.822 213.339 507.261 216.917 505.522 219.963C503.783 223.009 500.987 225.312 497.663 226.434H497.663Z" fill="#FFB6B6"/>
<path id="Vector_7" d="M328.538 93.33C328.538 93.33 310.435 95.4273 310.761 116.288C311.086 137.148 355.46 184.668 362.383 192.541C369.306 200.415 438.396 204.437 438.396 204.437L459.978 185.46L395.984 163.9L328.538 93.33Z" fill="#55545B"/>
<path id="Vector_8" d="M291.819 191.241L287.735 210.395C287.735 210.395 280.303 226.336 281.745 230.596C283.174 234.832 347.503 257.858 347.503 257.858C347.503 257.858 353.015 229.136 362.212 209.761L291.819 191.241Z" fill="#FFB6B6"/>
<path id="Vector_9" d="M497.985 490.827L460.833 508.577C458.246 509.812 455.275 509.97 452.572 509.015C449.869 508.06 447.657 506.07 446.421 503.483C445.185 500.897 445.027 497.925 445.983 495.223C446.938 492.52 448.927 490.307 451.514 489.072L488.666 471.322C491.252 470.086 494.224 469.929 496.927 470.884C499.629 471.839 501.842 473.829 503.078 476.415C504.313 479.002 504.471 481.973 503.516 484.676C502.561 487.378 500.571 489.591 497.985 490.827Z" fill="#3F3D56"/>
<path id="Vector_10" d="M380.089 539.983C390.636 539.983 399.187 531.433 399.187 520.885C399.187 510.337 390.636 501.787 380.089 501.787C369.541 501.787 360.991 510.337 360.991 520.885C360.991 531.433 369.541 539.983 380.089 539.983Z" fill="#3F3D56"/>
<path id="Vector_11" d="M160.947 521.776L153.437 514.737L287.496 371.725L526.731 300.126L645.462 508.503L636.519 513.599L521.84 312.335L293.108 380.79L160.947 521.776Z" fill="#3F3D56"/>
<path id="Vector_12" d="M363.87 515.283H262.712V525.577H363.87V515.283Z" fill="#3F3D56"/>
<path id="Vector_13" d="M295.448 322.439H285.155V376.257H295.448V322.439Z" fill="#3F3D56"/>
<path id="Vector_14" d="M495.602 200.662L485.807 203.825L519.388 307.812L529.183 304.649L495.602 200.662Z" fill="#3F3D56"/>
<path id="Vector_15" d="M294.421 369.486L285.538 374.689L369.946 518.799L378.828 513.597L294.421 369.486Z" fill="#3F3D56"/>
<path id="Vector_16" d="M572.208 390.476L391.049 514.01L396.848 522.515L578.007 398.98L572.208 390.476Z" fill="#3F3D56"/>
<path id="Vector_17" d="M310.052 328.855H268.878C266.011 328.855 263.262 327.716 261.235 325.689C259.208 323.662 258.069 320.913 258.069 318.047C258.069 315.18 259.208 312.431 261.235 310.404C263.262 308.377 266.011 307.238 268.878 307.238H310.052C312.918 307.238 315.668 308.377 317.695 310.404C319.721 312.431 320.86 315.18 320.86 318.047C320.86 320.913 319.721 323.662 317.695 325.689C315.668 327.716 312.918 328.855 310.052 328.855Z" fill="#535353"/>
<path id="Vector_18" d="M510.777 212.537H469.602C466.736 212.537 463.987 211.399 461.96 209.372C459.933 207.345 458.794 204.596 458.794 201.729C458.794 198.863 459.933 196.113 461.96 194.086C463.987 192.06 466.736 190.921 469.602 190.921H510.777C513.643 190.921 516.392 192.06 518.419 194.086C520.446 196.113 521.585 198.863 521.585 201.729C521.585 204.596 520.446 207.345 518.419 209.372C516.392 211.399 513.643 212.537 510.777 212.537Z" fill="#3F3D56"/>
<path id="Vector_19" d="M358.019 78.0088C374.59 75.1914 385.74 59.4737 382.923 42.9022C380.105 26.3308 364.388 15.1809 347.816 17.9982C331.245 20.8156 320.095 36.5333 322.912 53.1047C325.73 69.6762 341.447 80.8261 358.019 78.0088Z" fill="#FFB6B6"/>
<path id="Vector_20" d="M541.307 339.175L506.933 266.616L507.399 266.396C509.781 265.267 512.362 264.619 514.994 264.488C517.627 264.356 520.26 264.745 522.742 265.632C525.225 266.518 527.508 267.885 529.462 269.654C531.416 271.423 533.003 273.56 534.131 275.942L551.318 312.222C552.447 314.604 553.095 317.185 553.226 319.818C553.357 322.451 552.969 325.083 552.082 327.566C551.196 330.048 549.829 332.332 548.06 334.286C546.291 336.24 544.154 337.826 541.772 338.955L541.307 339.175Z" fill="#3F3D56"/>
<path id="Vector_21" d="M436.232 351.929C431.905 351.917 427.696 350.51 424.233 347.915C420.769 345.32 418.235 341.677 417.008 337.527L416.862 337.034L493.87 314.312L494.016 314.806C494.762 317.334 495.003 319.984 494.725 322.605C494.446 325.227 493.654 327.767 492.394 330.083C491.134 332.398 489.43 334.442 487.38 336.099C485.329 337.755 482.973 338.992 480.444 339.738L441.94 351.099C440.087 351.648 438.165 351.927 436.232 351.929Z" fill="#3F3D56"/>
<path id="Vector_22" d="M446.13 476.977L460.143 473.52L453.665 416.6L432.983 421.703L446.13 476.977Z" fill="#FFB6B6"/>
<path id="Vector_23" d="M439.493 460.643L461.362 450.454L465.155 460.049L492.261 466.339C493.599 466.65 494.804 467.38 495.698 468.424C496.593 469.467 497.13 470.769 497.232 472.14C497.334 473.51 496.995 474.878 496.265 476.042C495.535 477.206 494.451 478.107 493.173 478.612L466.509 489.151L458.161 481.476L460.118 491.677L450.065 495.65L439.493 460.643Z" fill="#2F2E41"/>
<path id="Vector_24" d="M460.928 425.686L431.05 443.604L399.183 331.063C347.488 330.622 299.69 324.834 260.665 307.007C247.443 301.02 241.561 285.187 247.528 271.643C247.807 271.01 248.109 270.388 248.435 269.778C256.032 255.724 270.76 247.471 283.828 232.866L348.653 256.8L344.008 274.256L417.336 277.937C432.082 278.677 443.356 291.486 442.518 306.546C442.473 307.341 442.395 308.134 442.283 308.923L460.928 425.686Z" fill="#2F2E41"/>
<path id="Vector_25" d="M334.171 77.7148L354.093 88.1312C355.193 88.5704 356.129 89.3421 356.77 90.3386C357.412 91.335 357.726 92.5067 357.67 93.6904L362.859 114.454L381.117 153.1C381.117 153.1 385.874 173.668 376.795 193.087C367.716 212.507 347.624 260.917 347.624 260.917C334.518 292.306 226.949 268.066 254.981 241.359C258.317 238.181 277.064 211.34 283.923 209.797L300.754 113.484C301.602 108.399 303.565 103.565 306.502 99.3283C309.439 95.0915 313.277 91.557 317.741 88.9784C320.438 87.4541 322.938 86.5515 324.651 87.0121C328.556 87.9221 330.401 79.079 334.171 77.7148Z" fill="#585765"/>
<path id="Vector_26" d="M507.186 205.331C505.374 206.36 503.359 206.98 501.282 207.146C499.206 207.312 497.118 207.021 495.166 206.292C493.214 205.564 491.445 204.417 489.984 202.932C488.524 201.446 487.406 199.658 486.711 197.694L372.012 189.937L386.366 167.88L496.313 179.034C499.69 178.085 503.297 178.408 506.452 179.941C509.607 181.474 512.089 184.111 513.43 187.353C514.77 190.594 514.874 194.215 513.724 197.528C512.573 200.842 510.246 203.618 507.186 205.331Z" fill="#FFB6B6"/>
<path id="Vector_27" d="M316.512 105.513C316.512 105.513 299.101 110.896 303.248 131.342C307.395 151.789 359.734 190.362 367.984 196.831C376.234 203.301 444.888 194.581 444.888 194.581L462.623 171.966L395.76 162.512L316.512 105.513Z" fill="#585765"/>
<path id="Vector_28" d="M385.382 37.9346C380.786 40.1985 375.582 36.9172 371.561 33.6541L373 34.8712C366.023 41.8001 362.83 51.6983 361.32 61.4253C359.808 71.1421 359.731 81.0641 357.801 90.7163C355.869 100.358 351.756 110.068 343.949 116.042C333.49 124.043 318.947 123.686 305.987 121.4C305.814 121.367 305.654 121.342 305.481 121.308C308.858 111.223 310.163 100.56 309.318 89.9586C305.96 100.626 300.157 110.362 292.371 118.39C283.771 116.118 275.369 113.154 267.246 109.526C261.991 107.172 256.325 103.938 254.816 98.379C253.304 92.8621 256.624 87.0248 261.107 83.4853C265.59 79.9457 271.117 78.0662 276.24 75.5247C281.354 72.995 286.404 69.4113 288.407 64.0589C293.028 51.7462 279.361 37.8126 284.507 25.703C287.045 19.7481 293.377 16.458 299.334 13.9104C308.428 10.0314 317.773 6.77153 327.307 4.15319C335.676 1.85321 344.421 0.0428203 352.985 1.406C361.549 2.76917 369.978 7.88278 373.138 15.97C378.29 17.6523 383.76 19.5518 387.1 23.8393C390.437 28.1165 390.248 35.5411 385.382 37.9346Z" fill="#2F2E41"/>
<path id="Vector_29" d="M550.055 313.368C556.187 311.101 558.362 301.699 554.912 292.367C551.462 283.036 543.695 277.309 537.563 279.576C531.431 281.843 529.256 291.245 532.705 300.576C536.155 309.908 543.923 315.635 550.055 313.368Z" fill="#FFEF63"/>
</g>
<g id="wheel1">
<path id="Vector_30" d="M156.718 634.115C134.731 634.115 113.237 627.595 94.9552 615.379C76.6733 603.163 62.4243 585.801 54.01 565.487C45.5958 545.173 43.3942 522.821 47.6838 501.256C51.9733 479.691 62.5613 459.882 78.1088 444.334C93.6563 428.787 113.465 418.199 135.03 413.909C156.595 409.62 178.948 411.821 199.261 420.236C219.575 428.65 236.938 442.899 249.153 461.181C261.369 479.463 267.889 500.957 267.889 522.944C267.856 552.418 256.132 580.675 235.291 601.517C214.45 622.358 186.192 634.081 156.718 634.115ZM156.718 422.067C136.767 422.067 117.263 427.983 100.674 439.068C84.0849 450.152 71.1552 465.907 63.52 484.34C55.8849 502.773 53.8872 523.056 57.7796 542.624C61.6719 562.192 71.2796 580.167 85.3875 594.275C99.4954 608.383 117.47 617.99 137.038 621.883C156.606 625.775 176.889 623.777 195.322 616.142C213.755 608.507 229.51 595.577 240.595 578.988C251.679 562.399 257.595 542.896 257.595 522.944C257.565 496.199 246.927 470.558 228.016 451.647C209.104 432.735 183.463 422.097 156.718 422.067Z" fill="#3F3D56"/>
<path id="Vector_31" d="M156.718 539.413C165.814 539.413 173.188 532.04 173.188 522.944C173.188 513.848 165.814 506.474 156.718 506.474C147.622 506.474 140.248 513.848 140.248 522.944C140.248 532.04 147.622 539.413 156.718 539.413Z" fill="#3F3D56"/>
<path id="Vector_32" d="M157.058 525.848L159.342 417.043L157.284 417L155 525.805L157.058 525.848Z" fill="#3F3D56"/>
<path id="Vector_33" d="M75 452.583L158.693 522.148L160.009 520.565L76.3159 451L75 452.583Z" fill="#3F3D56"/>
<path id="Vector_34" d="M49.2404 540.754L157.325 528.045L157.084 526L49 538.71L49.2404 540.754Z" fill="#3F3D56"/>
<path id="Vector_35" d="M87.575 607.585L157.659 524.326L156.084 523L86 606.259L87.575 607.585Z" fill="#3F3D56"/>
<path id="Vector_36" d="M161.517 627.774L158.058 519L156 519.065L159.46 627.84L161.517 627.774Z" fill="#3F3D56"/>
<path id="Vector_37" d="M228.742 602.429L156.54 521L155 522.366L227.201 603.795L228.742 602.429Z" fill="#3F3D56"/>
<path id="Vector_38" d="M264.848 524.763L156.033 523L156 525.058L264.815 526.821L264.848 524.763Z" fill="#3F3D56"/>
<path id="Vector_39" d="M242.403 456L157 523.454L158.276 525.07L243.679 457.616L242.403 456Z" fill="#3F3D56"/>
</g>
<g id="wheel2">
<path id="Vector_40" d="M638.911 632.515C615.706 632.515 593.022 625.634 573.728 612.742C554.434 599.85 539.396 581.527 530.516 560.088C521.636 538.65 519.312 515.059 523.839 492.3C528.366 469.541 539.541 448.636 555.949 432.228C572.357 415.819 593.263 404.645 616.022 400.118C638.781 395.591 662.371 397.914 683.81 406.794C705.248 415.675 723.572 430.713 736.464 450.007C749.356 469.301 756.237 491.985 756.237 515.19C756.202 546.296 743.829 576.117 721.834 598.113C699.839 620.108 670.017 632.48 638.911 632.515ZM638.911 408.727C617.855 408.727 597.271 414.971 579.764 426.669C562.256 438.368 548.61 454.995 540.553 474.448C532.495 493.902 530.386 515.308 534.494 535.959C538.602 556.611 548.742 575.581 563.631 590.47C578.52 605.359 597.489 615.498 618.141 619.606C638.793 623.714 660.199 621.606 679.652 613.548C699.106 605.49 715.733 591.844 727.431 574.337C739.129 556.829 745.373 536.246 745.373 515.19C745.341 486.964 734.115 459.903 714.156 439.944C694.197 419.986 667.137 408.759 638.911 408.727Z" fill="#3F3D56"/>
<path id="Vector_41" d="M641.079 535.873C650.175 535.873 657.548 528.499 657.548 519.403C657.548 510.307 650.175 502.934 641.079 502.934C631.983 502.934 624.609 510.307 624.609 519.403C624.609 528.499 631.983 535.873 641.079 535.873Z" fill="#3F3D56"/>
<path id="Vector_42" d="M642.058 514.848L644.342 406.043L642.284 406L640 514.805L642.058 514.848Z" fill="#3F3D56"/>
<path id="Vector_43" d="M550 444.583L633.693 514.148L635.009 512.565L551.316 443L550 444.583Z" fill="#3F3D56"/>
<path id="Vector_44" d="M526.24 533.754L634.325 521.045L634.084 519L526 531.71L526.24 533.754Z" fill="#3F3D56"/>
<path id="Vector_45" d="M570.575 606.585L640.659 523.326L639.084 522L569 605.259L570.575 606.585Z" fill="#3F3D56"/>
<path id="Vector_46" d="M647.517 623.774L644.058 515L642 515.065L645.46 623.84L647.517 623.774Z" fill="#3F3D56"/>
<path id="Vector_47" d="M714.742 597.429L642.54 516L641 517.366L713.201 598.795L714.742 597.429Z" fill="#3F3D56"/>
<path id="Vector_48" d="M752.848 518.763L644.033 517L644 519.058L752.815 520.821L752.848 518.763Z" fill="#3F3D56"/>
<path id="Vector_49" d="M732.403 450L647 517.455L648.276 519.07L733.679 451.616L732.403 450Z" fill="#3F3D56"/>
</g>
</g>
<defs>
<linearGradient id="paint0_linear_0_1" x1="702.5" y1="602.5" x2="117" y2="64.5" gradientUnits="userSpaceOnUse">
<stop offset="0.2694" stop-color="#843FAE"/>
<stop offset="1" stop-color="#0EFFFF" stop-opacity="0"/>
</linearGradient>
<clipPath id="clip0_0_1">
<rect width="818" height="633.375" fill="white" transform="translate(0 0.935669)"/>
</clipPath>
</defs>
</svg>
